<svg width="39" height="26" viewBox="0 0 39 26" fill="none" xmlns="http://www.w3.org/2000/svg">
<path d="M36.3758 25.9989H2.59827C1.90916 25.9989 1.24828 25.725 0.761015 25.2374C0.273745 24.7497 0 24.0884 0 23.3988L0 12.461H1.87184L2.29405 11.4383H3.23917L3.66031 12.4567H7.34336V11.6821L7.67247 12.4621H9.58436L9.91348 11.6691V12.4599H19.0648V10.7872H19.238C19.3614 10.7915 19.3972 10.8024 19.3972 11.0082V12.4621H24.1314V12.0732C24.6153 12.3191 25.1859 12.4632 25.7911 12.4632L25.8939 12.4621H25.8885H27.8805L28.307 11.4437H29.2522L29.669 12.4621H33.5079V11.4936L34.0882 12.4621H37.1585V6.06584H34.1196V6.82095L33.6941 6.06584H30.5697V6.82095L30.1789 6.06584H25.9599C25.3207 6.03351 24.6839 6.16515 24.1098 6.44827L24.1325 6.43852V6.06584H21.2224V6.43852C20.8702 6.16069 20.4253 6.02779 19.9785 6.06692H19.985H9.35052L8.63708 7.71907L7.90415 6.06692H4.55455V6.82203L4.18538 6.06692H1.32728L0.00324783 9.10038V2.60011C0.00324783 1.91052 0.276993 1.24917 0.764263 0.761554C1.25153 0.273939 1.91241 0 2.60152 0H36.379C37.0681 0 37.729 0.273939 38.2163 0.761554C38.7035 1.24917 38.9773 1.91052 38.9773 2.60011V13.9539H36.9495C36.9171 13.9517 36.8781 13.9517 36.8402 13.9517C36.3703 13.9517 35.934 14.0926 35.5703 14.3342L35.5789 14.3288V13.9539H32.5801C32.1116 13.928 31.6481 14.0612 31.2647 14.332L31.2712 14.3277V13.9528H25.9166V14.3277C25.4783 14.0803 24.9833 13.9511 24.48 13.9528H24.4378H24.44H20.9074V14.3277C20.4459 14.0318 19.8982 13.9002 19.3528 13.9539L19.3625 13.9528H15.4099L14.5048 14.9322L13.6582 13.9528H7.75366V20.3534H13.5478L14.4799 19.3589L15.3579 20.3534H18.9295V18.8551H19.4275C19.9063 18.8739 20.3839 18.7938 20.8305 18.62L20.8067 18.6287V20.3556H23.7514V18.6883H23.8932C24.073 18.6883 24.0914 18.6948 24.0914 18.8768V20.3567H33.0402L33.1496 20.3589C33.6627 20.3589 34.1412 20.205 34.5396 19.9417L34.5299 19.9472V20.3567H37.3685L37.5038 20.3589C38.0354 20.3589 38.541 20.2494 39 20.0512L38.9751 20.0609V23.3999C38.9751 24.0895 38.7014 24.7508 38.2141 25.2384C37.7268 25.7261 37.0659 26 36.3768 26L36.3758 25.9989ZM22.8485 19.4564H21.7464V14.8683H24.2754C24.7322 14.8259 25.1921 14.9028 25.6103 15.0915L25.5929 15.085C25.9318 15.2713 26.1581 15.6267 26.1581 16.034L26.1559 16.1066V16.1033L26.157 16.1445C26.157 16.671 25.8398 17.1239 25.3851 17.3211L25.3764 17.3243C25.594 17.4023 25.7759 17.5356 25.9112 17.7078L25.9134 17.71C26.0662 17.9632 26.1303 18.2602 26.0953 18.5539L26.0964 18.5474V19.4553H24.9964V18.8811C25.0485 18.5685 24.9858 18.2476 24.82 17.9776L24.8232 17.983C24.7089 17.8962 24.5782 17.8335 24.4391 17.7987C24.2999 17.7638 24.1551 17.7576 24.0134 17.7804L24.0199 17.7793H22.8485V19.4553V19.4564ZM22.8485 15.8162V16.8465H24.1801C24.3682 16.8639 24.5574 16.8302 24.7279 16.749L24.7214 16.7523C24.7911 16.7073 24.8484 16.6455 24.8881 16.5727C24.9278 16.4998 24.9487 16.4182 24.9488 16.3352L24.9477 16.3103V16.3113C24.9531 16.2285 24.9349 16.1459 24.8952 16.073C24.8555 16.0002 24.796 15.9401 24.7236 15.8997L24.7214 15.8986C24.5571 15.8251 24.3767 15.7952 24.1975 15.8119H24.2018L22.8485 15.8162ZM13.0779 19.4553H8.73992V14.8683H13.1462L14.494 16.372L15.8873 14.8683H19.3874C20.6302 14.8683 21.2343 15.3634 21.2343 16.3796C21.2343 17.4142 20.6097 17.9169 19.3289 17.9169H17.9594V19.4542H15.8299L14.481 17.9386L13.079 19.4553H13.0779ZM16.8682 15.3601L15.1858 17.1694L16.8682 19.0371V15.3601ZM9.83228 17.5865V18.4987H12.5258L13.7708 17.1531L12.5735 15.8162H9.8312V16.6504H12.2368V17.5854L9.83228 17.5865ZM17.9594 15.8173V16.9852H19.3744C19.8075 16.9852 20.0565 16.7642 20.0565 16.3785C20.0565 16.0102 19.8248 15.8162 19.3863 15.8162L17.9594 15.8173ZM37.4876 19.4575H35.3722V18.4716H37.4789C37.6366 18.4934 37.7964 18.4521 37.9239 18.3568L37.9228 18.3578C37.9635 18.3201 37.9959 18.2743 38.0181 18.2234C38.0403 18.1725 38.0517 18.1176 38.0516 18.0621V18.0588V18.0448C38.0517 17.9899 38.0398 17.9357 38.0168 17.886C37.9939 17.8362 37.9603 17.792 37.9185 17.7566C37.8064 17.6755 37.6683 17.6392 37.5309 17.6547H37.5331L37.3306 17.6482C36.3411 17.6222 35.2206 17.5919 35.2206 16.2344C35.2206 15.5736 35.6342 14.8683 36.7915 14.8683H38.9751V15.8455H36.9777C36.8234 15.8282 36.6676 15.8593 36.5316 15.9343L36.536 15.9322C36.4825 15.9674 36.4395 16.0163 36.4115 16.0739C36.3835 16.1315 36.3716 16.1955 36.3768 16.2593V16.2583V16.2702C36.3768 16.3432 36.3998 16.4143 36.4426 16.4735C36.4854 16.5326 36.5457 16.5767 36.615 16.5995L36.6172 16.6006C36.7544 16.643 36.8981 16.6606 37.0416 16.6526H37.0383L37.6327 16.6678C38.0807 16.623 38.5283 16.7565 38.8787 17.0394L38.8755 17.0372C38.908 17.0632 38.9361 17.0914 38.961 17.1228L38.9621 17.1239L38.9751 18.8703C38.793 19.0832 38.5614 19.248 38.3007 19.3502C38.04 19.4524 37.7581 19.4889 37.48 19.4564L37.4876 19.4575ZM33.2124 19.4575H31.0774V18.4716H33.2015C33.3605 18.4924 33.5213 18.4513 33.6508 18.3568L33.6487 18.3578C33.6891 18.32 33.7213 18.2741 33.7433 18.2233C33.7652 18.1724 33.7765 18.1175 33.7764 18.0621V18.0588V18.0513C33.7763 17.9955 33.7645 17.9404 33.7415 17.8896C33.7185 17.8388 33.685 17.7934 33.6432 17.7566C33.5292 17.6755 33.3893 17.6392 33.2503 17.6547H33.2524L33.0511 17.6482C32.0648 17.6222 30.9454 17.5919 30.9454 16.2344C30.9454 15.5736 31.3568 14.8683 32.5119 14.8683H34.7074V15.8455H32.6981C32.5449 15.8284 32.3901 15.8594 32.2553 15.9343L32.2597 15.9322C32.2028 15.9713 32.1576 16.0251 32.1287 16.0879C32.0999 16.1507 32.0885 16.2201 32.0958 16.2888C32.1032 16.3575 32.1289 16.4229 32.1703 16.4782C32.2117 16.5334 32.2673 16.5765 32.3311 16.6028L32.3333 16.6039C32.4723 16.6465 32.6179 16.6641 32.7631 16.6559H32.7598L33.3499 16.671C33.8003 16.6276 34.2499 16.7613 34.6035 17.0437L34.6003 17.0405C34.7192 17.1717 34.8097 17.3262 34.866 17.4942C34.9223 17.6622 34.9431 17.8401 34.9272 18.0166V18.0112C34.9305 18.9678 34.3513 19.4553 33.2091 19.4553L33.2124 19.4575ZM30.4214 19.4575H26.7622V14.8672H30.4181V15.8152H27.8556V16.6494H30.3586V17.5843H27.8556V18.4965L30.4214 18.5009V19.4542V19.4575ZM32.5541 11.564H30.3229L29.8963 10.5413H27.6207L27.2071 11.564H25.9253C25.3497 11.5944 24.7828 11.4128 24.3317 11.0537L24.3371 11.057C24.1228 10.8203 23.9601 10.5415 23.8595 10.2383C23.7588 9.93523 23.7224 9.61446 23.7525 9.29647L23.7514 9.30514C23.7235 8.9813 23.7618 8.65516 23.8637 8.34656C23.9657 8.03796 24.1294 7.75333 24.3447 7.50998L24.3425 7.51215C24.5699 7.31322 24.8357 7.16324 25.1234 7.07154C25.4112 6.97984 25.7147 6.94838 26.0152 6.97912L26.0065 6.97804H27.0675V7.95633H26.0282C25.8761 7.93673 25.7215 7.95093 25.5756 7.99794C25.4296 8.04494 25.2958 8.12358 25.1837 8.22826L25.1848 8.22718C24.9533 8.52381 24.841 8.8963 24.8698 9.27155V9.26614C24.8353 9.65168 24.9435 10.0365 25.174 10.3473L25.1707 10.343C25.3859 10.519 25.6614 10.6038 25.9383 10.5792H25.934H26.4255L27.9747 6.97154H29.6203L31.4748 11.3051V6.97154H33.1431L35.068 10.1653V6.97154H36.1939V11.5564H34.6306L32.552 8.11342V11.5564L32.5541 11.564ZM28.7661 7.75266L28.0115 9.5814H29.5239L28.7661 7.75266ZM18.1576 11.5618H17.062V6.97479H19.5823C20.0423 6.92702 20.5067 7.00528 20.9258 7.20122L20.9096 7.19472C21.0781 7.28796 21.2185 7.42465 21.3164 7.59059C21.4142 7.75653 21.4659 7.94566 21.466 8.13834L21.4639 8.21418V8.21093V8.24451C21.4639 8.49472 21.3919 8.73964 21.2563 8.94987C21.1207 9.16011 20.9274 9.32672 20.6995 9.42973L20.6909 9.43298C20.9085 9.51531 21.0914 9.64749 21.2311 9.81649L21.2333 9.81866C21.3877 10.0728 21.4515 10.3719 21.4141 10.6669L21.4151 10.6604V11.5607H20.3098L20.3055 10.9822V10.8955C20.3448 10.6127 20.2822 10.325 20.129 10.0841L20.1322 10.0895C20.0176 10.0052 19.8874 9.94448 19.7491 9.91082C19.6109 9.87716 19.4673 9.87125 19.3268 9.89341L19.3333 9.89233H18.1586V11.5607L18.1576 11.5618ZM18.1576 7.92925V8.94762H19.487C19.6748 8.96801 19.8645 8.93418 20.0337 8.85012L20.0283 8.85229C20.0977 8.8101 20.155 8.75077 20.1948 8.68C20.2346 8.60923 20.2556 8.5294 20.2557 8.44819L20.2546 8.41785V8.41893C20.2601 8.33662 20.2414 8.25448 20.2008 8.18267C20.1602 8.11086 20.0995 8.05252 20.0261 8.01483L20.024 8.01375C19.8592 7.94302 19.6798 7.91328 19.5011 7.92708H19.5043L18.1576 7.92925ZM6.5563 11.5618H4.33045L3.90931 10.5391H1.62717L1.20278 11.5618H0.0119087L1.97468 6.97479H3.60185L5.46502 11.3159V6.97479H7.25242L8.68579 10.0852L10.0033 6.97479H11.8275V11.5596H10.7016L10.6995 7.9715L9.11126 11.5607H8.1499L6.55738 7.96608V11.5607L6.5563 11.5618ZM2.76283 7.75266L2.01691 9.5814H3.51307L2.76283 7.75266ZM23.2112 11.5607H22.0939V6.97479H23.2123V11.5596L23.2112 11.5607ZM16.2976 11.5607H12.6449V6.97479H16.3041V7.92816H13.7405V8.75478H16.2424V9.69624H13.7383V10.6128H16.302V11.5596L16.2976 11.5607Z" fill="#2592C4"/>
</svg>
