<svg width="50" height="47" viewBox="0 0 50 47" fill="none" xmlns="http://www.w3.org/2000/svg">
<g clip-path="url(#clip0_807_692)">
<path d="M50 41.4815C50 42.8567 49.4147 44.1756 48.3728 45.148C47.3309 46.1204 45.9179 46.6667 44.4444 46.6667H5.55556C4.08213 46.6667 2.66905 46.1204 1.62718 45.148C0.585316 44.1756 0 42.8567 0 41.4815V5.18519C0 3.80999 0.585316 2.49112 1.62718 1.51871C2.66905 0.546295 4.08213 0 5.55556 0L44.4444 0C45.9179 0 47.3309 0.546295 48.3728 1.51871C49.4147 2.49112 50 3.80999 50 5.18519V41.4815Z" fill="#858585"/>
<path d="M0 12.9626H50V34.9997H0V12.9626Z" fill="white"/>
<path d="M7.35718 17.8115C7.73496 16.8574 8.60162 16.0887 9.73635 16.0887C10.9141 16.0887 11.7363 16.8159 12.1141 17.8115L16.4711 29.0996C16.6044 29.4315 16.6488 29.7218 16.6488 29.8683C16.6488 30.6772 15.9377 31.2372 15.1141 31.2372C14.1808 31.2372 13.7141 30.7809 13.4919 30.1587L12.8252 28.2078H6.64468L5.97801 30.1379C5.75579 30.7809 5.28773 31.2372 4.37662 31.2372C3.48773 31.2372 2.73218 30.6163 2.73218 29.7853C2.73218 29.4535 2.84329 29.2046 2.88773 29.1009L7.35718 17.8115V17.8115ZM7.60301 25.3429H11.8266L9.75857 19.3255H9.71412L7.60301 25.3429V25.3429ZM20.0905 19.2011H17.6669C16.6002 19.2011 16.1558 18.4739 16.1558 17.77C16.1558 17.0428 16.7113 16.3389 17.6669 16.3389H25.8475C26.803 16.3389 27.36 17.0441 27.36 17.77C27.36 18.4752 26.9155 19.2011 25.8475 19.2011H23.4238V29.6168C23.4238 30.6539 22.7127 31.2346 21.7572 31.2346C20.8016 31.2346 20.0891 30.6539 20.0891 29.6168V19.2011H20.0905ZM30.6016 17.8115C30.735 17.0648 31.6016 16.2144 32.7794 16.2144C33.8919 16.2144 34.7572 16.9611 35.003 17.7078L37.628 25.9237H37.6711L40.2947 17.7078C40.5391 16.9611 41.4072 16.2144 42.5169 16.2144C43.6975 16.2144 44.5627 17.0648 44.6975 17.8115L46.7641 29.39C46.7863 29.5144 46.7863 29.6376 46.7863 29.7413C46.7863 30.6539 46.0752 31.2346 45.1863 31.2346C44.053 31.2346 43.6072 30.7576 43.453 29.7828L42.1405 21.3374H42.0975L39.428 30.0316C39.2738 30.5294 38.8502 31.2346 37.6516 31.2346C36.4502 31.2346 36.028 30.5294 35.8725 30.0316L33.2058 21.3374H33.16L31.8502 29.7828C31.6933 30.7576 31.2488 31.2346 30.1155 31.2346C29.2266 31.2346 28.5155 30.6539 28.5155 29.7413C28.5155 29.6376 28.5155 29.5131 28.5391 29.39L30.6016 17.8115V17.8115Z" fill="#858585"/>
</g>
<defs>
<clipPath id="clip0_807_692">
<rect width="50" height="46.6667" fill="white"/>
</clipPath>
</defs>
</svg>

