<svg width="36" height="36" viewBox="0 0 36 36" fill="none" xmlns="http://www.w3.org/2000/svg">
<path d="M36 32C36 33.0609 35.5786 34.0783 34.8284 34.8284C34.0783 35.5786 33.0609 36 32 36H4C2.93913 36 1.92172 35.5786 1.17157 34.8284C0.421427 34.0783 0 33.0609 0 32V4C0 2.93913 0.421427 1.92172 1.17157 1.17157C1.92172 0.421427 2.93913 0 4 0L32 0C33.0609 0 34.0783 0.421427 34.8284 1.17157C35.5786 1.92172 36 2.93913 36 4V32Z" fill="#858585"/>
<path d="M0 10H36V27H0V10Z" fill="white"/>
<path d="M5.297 13.74C5.569 13.004 6.193 12.411 7.01 12.411C7.858 12.411 8.45 12.972 8.722 13.74L11.859 22.448C11.955 22.704 11.987 22.928 11.987 23.041C11.987 23.665 11.475 24.097 10.882 24.097C10.21 24.097 9.874 23.745 9.714 23.265L9.234 21.76H4.784L4.304 23.249C4.144 23.745 3.807 24.097 3.151 24.097C2.511 24.097 1.967 23.618 1.967 22.977C1.967 22.721 2.047 22.529 2.079 22.449L5.297 13.74V13.74ZM5.474 19.55H8.515L7.026 14.908H6.994L5.474 19.55V19.55ZM14.465 14.812H12.72C11.952 14.812 11.632 14.251 11.632 13.708C11.632 13.147 12.032 12.604 12.72 12.604H18.61C19.298 12.604 19.699 13.148 19.699 13.708C19.699 14.252 19.379 14.812 18.61 14.812H16.865V22.847C16.865 23.647 16.353 24.095 15.665 24.095C14.977 24.095 14.464 23.647 14.464 22.847V14.812H14.465ZM22.033 13.74C22.129 13.164 22.753 12.508 23.601 12.508C24.402 12.508 25.025 13.084 25.202 13.66L27.092 19.998H27.123L29.012 13.66C29.188 13.084 29.813 12.508 30.612 12.508C31.462 12.508 32.085 13.164 32.182 13.74L33.67 22.672C33.686 22.768 33.686 22.863 33.686 22.943C33.686 23.647 33.174 24.095 32.534 24.095C31.718 24.095 31.397 23.727 31.286 22.975L30.341 16.46H30.31L28.388 23.167C28.277 23.551 27.972 24.095 27.109 24.095C26.244 24.095 25.94 23.551 25.828 23.167L23.908 16.46H23.875L22.932 22.975C22.819 23.727 22.499 24.095 21.683 24.095C21.043 24.095 20.531 23.647 20.531 22.943C20.531 22.863 20.531 22.767 20.548 22.672L22.033 13.74V13.74Z" fill="#858585"/>
</svg>
