<svg width="50" height="37" viewBox="0 0 50 37" fill="none" xmlns="http://www.w3.org/2000/svg">
<path d="M34.3748 10.7583C34.3748 10.3588 34.5394 9.97563 34.8324 9.69312C35.1254 9.4106 35.5229 9.25188 35.9373 9.25188H42.1873C42.6017 9.25188 42.9991 9.4106 43.2921 9.69312C43.5851 9.97563 43.7498 10.3588 43.7498 10.7583V13.7713C43.7498 14.1708 43.5851 14.554 43.2921 14.8365C42.9991 15.119 42.6017 15.2777 42.1873 15.2777H35.9373C35.5229 15.2777 35.1254 15.119 34.8324 14.8365C34.5394 14.554 34.3748 14.1708 34.3748 13.7713V10.7583Z" fill="#858585"/>
<path d="M6.25 0.212402C4.5924 0.212402 3.00269 0.847259 1.83058 1.97731C0.65848 3.10737 0 4.64005 0 6.23818L0 30.3413C0 31.9394 0.65848 33.4721 1.83058 34.6022C3.00269 35.7322 4.5924 36.3671 6.25 36.3671H43.75C45.4076 36.3671 46.9973 35.7322 48.1694 34.6022C49.3415 33.4721 50 31.9394 50 30.3413V6.23818C50 4.64005 49.3415 3.10737 48.1694 1.97731C46.9973 0.847259 45.4076 0.212402 43.75 0.212402H6.25ZM46.875 6.23818V21.3026H3.125V6.23818C3.125 5.43911 3.45424 4.67277 4.04029 4.10775C4.62634 3.54272 5.4212 3.22529 6.25 3.22529H43.75C44.5788 3.22529 45.3737 3.54272 45.9597 4.10775C46.5458 4.67277 46.875 5.43911 46.875 6.23818ZM43.75 33.3542H6.25C5.4212 33.3542 4.62634 33.0368 4.04029 32.4717C3.45424 31.9067 3.125 31.1404 3.125 30.3413V27.3284H46.875V30.3413C46.875 31.1404 46.5458 31.9067 45.9597 32.4717C45.3737 33.0368 44.5788 33.3542 43.75 33.3542Z" fill="#858585"/>
</svg>
