<svg width="50" height="50" viewBox="0 0 50 50" fill="none" xmlns="http://www.w3.org/2000/svg">
<g clip-path="url(#clip0_755_1304)">
<path d="M34.375 17.1875C34.375 16.7731 34.5396 16.3757 34.8326 16.0826C35.1257 15.7896 35.5231 15.625 35.9375 15.625H42.1875C42.6019 15.625 42.9993 15.7896 43.2924 16.0826C43.5854 16.3757 43.75 16.7731 43.75 17.1875V20.3125C43.75 20.7269 43.5854 21.1243 43.2924 21.4174C42.9993 21.7104 42.6019 21.875 42.1875 21.875H35.9375C35.5231 21.875 35.1257 21.7104 34.8326 21.4174C34.5396 21.1243 34.375 20.7269 34.375 20.3125V17.1875Z" fill="#369ECE"/>
<path d="M6.25 6.25C4.5924 6.25 3.00269 6.90848 1.83058 8.08058C0.65848 9.25268 0 10.8424 0 12.5L0 37.5C0 39.1576 0.65848 40.7473 1.83058 41.9194C3.00269 43.0915 4.5924 43.75 6.25 43.75H43.75C45.4076 43.75 46.9973 43.0915 48.1694 41.9194C49.3415 40.7473 50 39.1576 50 37.5V12.5C50 10.8424 49.3415 9.25268 48.1694 8.08058C46.9973 6.90848 45.4076 6.25 43.75 6.25H6.25ZM46.875 12.5V28.125H3.125V12.5C3.125 11.6712 3.45424 10.8763 4.04029 10.2903C4.62634 9.70424 5.4212 9.375 6.25 9.375H43.75C44.5788 9.375 45.3737 9.70424 45.9597 10.2903C46.5458 10.8763 46.875 11.6712 46.875 12.5ZM43.75 40.625H6.25C5.4212 40.625 4.62634 40.2958 4.04029 39.7097C3.45424 39.1237 3.125 38.3288 3.125 37.5V34.375H46.875V37.5C46.875 38.3288 46.5458 39.1237 45.9597 39.7097C45.3737 40.2958 44.5788 40.625 43.75 40.625Z" fill="#369ECE"/>
</g>
<defs>
<clipPath id="clip0_755_1304">
<rect width="50" height="50" fill="white"/>
</clipPath>
</defs>
</svg>
