<svg width="29" height="29" viewBox="0 0 29 29" fill="none" xmlns="http://www.w3.org/2000/svg">
<path d="M5.56799 23.4322L7.01799 17.6902L15.66 9.04822L19.952 13.3402L11.31 21.9822L5.56799 23.4322ZM8.06199 18.2702L7.19199 21.8082L10.73 20.9382L18.328 13.3402L15.66 10.6722L8.06199 18.2702V18.2702Z" fill="#369ECE"/>
<path d="M10.324 21.634C9.97603 20.184 8.81603 19.024 7.36603 18.676L7.65603 17.574C9.51203 18.038 10.962 19.488 11.426 21.344L10.324 21.634V21.634Z" fill="#369ECE"/>
<path d="M6.38 22.6202L8.06201 22.2142C7.88801 21.5762 7.42401 21.1122 6.78601 20.9382L6.38 22.6202Z" fill="#369ECE"/>
<path d="M20.3 12.9922L16.008 8.7002L17.748 6.96021L18.038 7.01821C20.126 7.30821 21.75 8.9322 22.04 11.0202L22.098 11.3102L20.3 12.9922ZM17.632 8.7002L20.3 11.3682L20.822 10.8462C20.532 9.51221 19.488 8.46821 18.154 8.17821L17.632 8.7002V8.7002Z" fill="#369ECE"/>
</svg>
