<svg width="11" height="13" viewBox="0 0 11 13" fill="none" xmlns="http://www.w3.org/2000/svg">
<path d="M3.625 2.12507C3.45924 2.12507 3.30027 2.19091 3.18306 2.30813C3.06585 2.42534 3 2.58431 3 2.75007C3 2.91583 3.06585 3.0748 3.18306 3.19201C3.30027 3.30922 3.45924 3.37507 3.625 3.37507C3.79076 3.37507 3.94973 3.30922 4.06694 3.19201C4.18415 3.0748 4.25 2.91583 4.25 2.75007C4.25 2.58431 4.18415 2.42534 4.06694 2.30813C3.94973 2.19091 3.79076 2.12507 3.625 2.12507ZM1.85625 2.12507C1.98538 1.75911 2.22484 1.44221 2.54162 1.21806C2.85841 0.993908 3.23693 0.873535 3.625 0.873535C4.01307 0.873535 4.39159 0.993908 4.70837 1.21806C5.02516 1.44221 5.26462 1.75911 5.39375 2.12507H9.875C10.0408 2.12507 10.1997 2.19091 10.3169 2.30813C10.4342 2.42534 10.5 2.58431 10.5 2.75007C10.5 2.91583 10.4342 3.0748 10.3169 3.19201C10.1997 3.30922 10.0408 3.37507 9.875 3.37507H5.39375C5.26462 3.74102 5.02516 4.05792 4.70837 4.28207C4.39159 4.50623 4.01307 4.6266 3.625 4.6266C3.23693 4.6266 2.85841 4.50623 2.54162 4.28207C2.22484 4.05792 1.98538 3.74102 1.85625 3.37507H1.125C0.95924 3.37507 0.800269 3.30922 0.683058 3.19201C0.565848 3.0748 0.5 2.91583 0.5 2.75007C0.5 2.58431 0.565848 2.42534 0.683058 2.30813C0.800269 2.19091 0.95924 2.12507 1.125 2.12507H1.85625ZM7.375 5.87507C7.20924 5.87507 7.05027 5.94091 6.93306 6.05812C6.81585 6.17533 6.75 6.33431 6.75 6.50007C6.75 6.66583 6.81585 6.8248 6.93306 6.94201C7.05027 7.05922 7.20924 7.12507 7.375 7.12507C7.54076 7.12507 7.69973 7.05922 7.81694 6.94201C7.93415 6.8248 8 6.66583 8 6.50007C8 6.33431 7.93415 6.17533 7.81694 6.05812C7.69973 5.94091 7.54076 5.87507 7.375 5.87507ZM5.60625 5.87507C5.73538 5.50911 5.97484 5.19221 6.29162 4.96806C6.60841 4.74391 6.98693 4.62353 7.375 4.62353C7.76307 4.62353 8.14159 4.74391 8.45837 4.96806C8.77516 5.19221 9.01462 5.50911 9.14375 5.87507H9.875C10.0408 5.87507 10.1997 5.94091 10.3169 6.05812C10.4342 6.17533 10.5 6.33431 10.5 6.50007C10.5 6.66583 10.4342 6.8248 10.3169 6.94201C10.1997 7.05922 10.0408 7.12507 9.875 7.12507H9.14375C9.01462 7.49102 8.77516 7.80792 8.45837 8.03207C8.14159 8.25623 7.76307 8.3766 7.375 8.3766C6.98693 8.3766 6.60841 8.25623 6.29162 8.03207C5.97484 7.80792 5.73538 7.49102 5.60625 7.12507H1.125C0.95924 7.12507 0.800269 7.05922 0.683058 6.94201C0.565848 6.8248 0.5 6.66583 0.5 6.50007C0.5 6.33431 0.565848 6.17533 0.683058 6.05812C0.800269 5.94091 0.95924 5.87507 1.125 5.87507H5.60625ZM3.625 9.62507C3.45924 9.62507 3.30027 9.69091 3.18306 9.80812C3.06585 9.92533 3 10.0843 3 10.2501C3 10.4158 3.06585 10.5748 3.18306 10.692C3.30027 10.8092 3.45924 10.8751 3.625 10.8751C3.79076 10.8751 3.94973 10.8092 4.06694 10.692C4.18415 10.5748 4.25 10.4158 4.25 10.2501C4.25 10.0843 4.18415 9.92533 4.06694 9.80812C3.94973 9.69091 3.79076 9.62507 3.625 9.62507ZM1.85625 9.62507C1.98538 9.25911 2.22484 8.94221 2.54162 8.71806C2.85841 8.49391 3.23693 8.37354 3.625 8.37354C4.01307 8.37354 4.39159 8.49391 4.70837 8.71806C5.02516 8.94221 5.26462 9.25911 5.39375 9.62507H9.875C10.0408 9.62507 10.1997 9.69091 10.3169 9.80812C10.4342 9.92533 10.5 10.0843 10.5 10.2501C10.5 10.4158 10.4342 10.5748 10.3169 10.692C10.1997 10.8092 10.0408 10.8751 9.875 10.8751H5.39375C5.26462 11.241 5.02516 11.5579 4.70837 11.7821C4.39159 12.0062 4.01307 12.1266 3.625 12.1266C3.23693 12.1266 2.85841 12.0062 2.54162 11.7821C2.22484 11.5579 1.98538 11.241 1.85625 10.8751H1.125C0.95924 10.8751 0.800269 10.8092 0.683058 10.692C0.565848 10.5748 0.5 10.4158 0.5 10.2501C0.5 10.0843 0.565848 9.92533 0.683058 9.80812C0.800269 9.69091 0.95924 9.62507 1.125 9.62507H1.85625Z" fill="white"/>
</svg>
