<svg width="17" height="17" viewBox="0 0 17 17" fill="none" xmlns="http://www.w3.org/2000/svg">
<path d="M8.50002 1.23959C9.08803 1.23956 9.65377 1.46453 10.0812 1.86836C10.5086 2.27219 10.7653 2.82427 10.7986 3.41134L10.8021 3.54168H14.5209C14.6555 3.54172 14.785 3.59285 14.8834 3.68474C14.9817 3.77663 15.0415 3.90243 15.0507 4.03672C15.0599 4.171 15.0177 4.30377 14.9328 4.40818C14.8479 4.51259 14.7264 4.58087 14.5931 4.59922L14.5209 4.60418H13.957L13.0504 13.8267C13.0049 14.2865 12.7976 14.7151 12.4653 15.0361C12.133 15.3571 11.6974 15.5496 11.2363 15.5791L11.1116 15.5833H5.8884C5.42618 15.5833 4.97903 15.419 4.62686 15.1196C4.27468 14.8202 4.04044 14.4054 3.96598 13.9492L3.94969 13.826L3.04231 4.60418H2.47919C2.35081 4.60417 2.22678 4.55768 2.13003 4.4733C2.03328 4.38892 1.97035 4.27236 1.9529 4.14518L1.94794 4.07293C1.94794 3.94455 1.99443 3.82052 2.07881 3.72377C2.16319 3.62702 2.27975 3.56409 2.40694 3.54664L2.47919 3.54168H6.19794C6.19794 2.93113 6.44048 2.34558 6.8722 1.91386C7.30393 1.48213 7.88947 1.23959 8.50002 1.23959V1.23959ZM12.8896 4.60418H4.10977L5.00723 13.7218C5.0271 13.9253 5.11675 14.1156 5.26097 14.2604C5.40519 14.4053 5.59509 14.4958 5.79844 14.5166L5.8884 14.5208H11.1116C11.5366 14.5208 11.8972 14.2198 11.9794 13.8111L11.9935 13.7218L12.8889 4.60418H12.8896ZM9.7396 6.55209C9.86798 6.5521 9.99201 6.59859 10.0888 6.68297C10.1855 6.76735 10.2484 6.88391 10.2659 7.01109L10.2709 7.08334V12.0417C10.2708 12.1763 10.2197 12.3058 10.1278 12.4042C10.0359 12.5025 9.9101 12.5624 9.77581 12.5715C9.64153 12.5807 9.50876 12.5386 9.40435 12.4536C9.29994 12.3687 9.23166 12.2473 9.21331 12.1139L9.20835 12.0417V7.08334C9.20835 6.94245 9.26433 6.80732 9.36395 6.70769C9.46358 6.60806 9.59871 6.55209 9.7396 6.55209ZM7.26044 6.55209C7.38881 6.5521 7.51285 6.59859 7.6096 6.68297C7.70635 6.76735 7.76927 6.88391 7.78673 7.01109L7.79169 7.08334V12.0417C7.79165 12.1763 7.74051 12.3058 7.64862 12.4042C7.55673 12.5025 7.43093 12.5624 7.29665 12.5715C7.16236 12.5807 7.0296 12.5386 6.92518 12.4536C6.82077 12.3687 6.75249 12.2473 6.73415 12.1139L6.72919 12.0417V7.08334C6.72919 6.94245 6.78516 6.80732 6.88479 6.70769C6.98442 6.60806 7.11954 6.55209 7.26044 6.55209ZM8.50002 2.30209C8.18893 2.30211 7.88921 2.41909 7.66037 2.62983C7.43152 2.84056 7.29029 3.12964 7.26469 3.43968L7.26044 3.54168H9.7396C9.7396 3.21292 9.60901 2.89763 9.37654 2.66516C9.14407 2.43269 8.82878 2.30209 8.50002 2.30209Z" fill="#858585"/>
</svg>
