<svg width="13" height="13" viewBox="0 0 13 13" fill="none" xmlns="http://www.w3.org/2000/svg">
<path d="M6.50001 1.08334C5.4287 1.08334 4.38144 1.40103 3.49067 1.99622C2.59991 2.59141 1.90564 3.43738 1.49567 4.42714C1.08569 5.41691 0.978422 6.50602 1.18743 7.55675C1.39643 8.60748 1.91232 9.57264 2.66985 10.3302C3.42739 11.0877 4.39254 11.6036 5.44327 11.8126C6.494 12.0216 7.58311 11.9143 8.57288 11.5044C9.56265 11.0944 10.4086 10.4001 11.0038 9.50935C11.599 8.61858 11.9167 7.57133 11.9167 6.50001C11.9167 5.78868 11.7766 5.08432 11.5044 4.42714C11.2321 3.76996 10.8332 3.17283 10.3302 2.66985C9.82719 2.16686 9.23006 1.76788 8.57288 1.49566C7.9157 1.22345 7.21134 1.08334 6.50001 1.08334V1.08334ZM6.50001 10.8333C5.64296 10.8333 4.80515 10.5792 4.09254 10.103C3.37993 9.62689 2.82451 8.95012 2.49653 8.15831C2.16855 7.36649 2.08274 6.4952 2.24994 5.65462C2.41715 4.81403 2.82986 4.04191 3.43588 3.43588C4.04191 2.82985 4.81404 2.41714 5.65462 2.24994C6.49521 2.08274 7.36649 2.16855 8.15831 2.49653C8.95012 2.82451 9.62689 3.37993 10.103 4.09254C10.5792 4.80515 10.8333 5.64296 10.8333 6.50001C10.8333 7.64928 10.3768 8.75148 9.56414 9.56414C8.75148 10.3768 7.64928 10.8333 6.50001 10.8333V10.8333Z" fill="#369ECE"/>
<path d="M6.50001 9.20833C6.79916 9.20833 7.04168 8.96582 7.04168 8.66667C7.04168 8.36751 6.79916 8.125 6.50001 8.125C6.20086 8.125 5.95834 8.36751 5.95834 8.66667C5.95834 8.96582 6.20086 9.20833 6.50001 9.20833Z" fill="#369ECE"/>
<path d="M6.50001 3.79169C6.35635 3.79169 6.21858 3.84876 6.11699 3.95034C6.01541 4.05192 5.95834 4.18969 5.95834 4.33335V7.04169C5.95834 7.18535 6.01541 7.32312 6.11699 7.4247C6.21858 7.52629 6.35635 7.58335 6.50001 7.58335C6.64367 7.58335 6.78144 7.52629 6.88303 7.4247C6.98461 7.32312 7.04168 7.18535 7.04168 7.04169V4.33335C7.04168 4.18969 6.98461 4.05192 6.88303 3.95034C6.78144 3.84876 6.64367 3.79169 6.50001 3.79169Z" fill="#369ECE"/>
</svg>
