<svg width="40" height="31" viewBox="0 0 40 31" fill="none" xmlns="http://www.w3.org/2000/svg">
<path d="M40 24.6463C40 28.0761 37.2127 30.8691 33.7897 30.8691H0V6.22286C0 2.79297 2.78734 0 6.21031 0H40V24.6463Z" fill="white"/>
<path d="M28.9975 18.3256H31.5647C31.6381 18.3256 31.8092 18.3012 31.8827 18.3012C32.3717 18.2032 32.7874 17.7621 32.7874 17.1497C32.7874 16.5618 32.3717 16.1207 31.8827 15.9983C31.8092 15.9737 31.6627 15.9737 31.5649 15.9737H28.9977V18.3256H28.9975Z" fill="url(#paint0_linear_755_1346)"/>
<path d="M31.2714 2.08173C28.8264 2.08173 26.8214 4.06635 26.8214 6.54072V11.1711H33.1052C33.2519 11.1711 33.423 11.1711 33.5452 11.1956C34.9633 11.2692 36.0147 12.0041 36.0147 13.2779C36.0147 14.2824 35.3056 15.1399 33.9853 15.3115V15.3604C35.4278 15.4584 36.5281 16.2669 36.5281 17.5163C36.5281 18.8638 35.3056 19.7458 33.6919 19.7458H26.7971V28.8106H33.3252C35.7702 28.8106 37.7752 26.8261 37.7752 24.3516V2.08173H31.2714V2.08173Z" fill="url(#paint1_linear_755_1346)"/>
<path d="M32.4694 13.5726C32.4694 12.9845 32.0538 12.5925 31.5647 12.5189C31.516 12.5189 31.3936 12.4944 31.3203 12.4944H28.9975V14.6504H31.3203C31.3938 14.6504 31.5403 14.6504 31.5649 14.6259C32.0539 14.5523 32.4695 14.1605 32.4695 13.5724L32.4694 13.5726Z" fill="url(#paint2_linear_755_1346)"/>
<path d="M6.67485 2.08173C4.22985 2.08173 2.22484 4.06635 2.22484 6.54072V17.541C3.47188 18.1533 4.76766 18.5454 6.06359 18.5454C7.60391 18.5454 8.43516 17.6144 8.43516 16.3405V11.1466H12.2494V16.3159C12.2494 18.3248 11.0025 19.9664 6.77266 19.9664C4.20547 19.9664 2.20047 19.4027 2.20047 19.4027V28.786H8.72859C11.1736 28.786 13.1786 26.8016 13.1786 24.327V2.08204H6.67469L6.67485 2.08173Z" fill="url(#paint3_linear_755_1346)"/>
<path d="M18.9731 2.08173C16.5281 2.08173 14.5231 4.06635 14.5231 6.54072V12.3715C15.648 11.416 17.6039 10.8035 20.758 10.9505C22.445 11.0241 24.2542 11.4896 24.2542 11.4896V13.3761C23.3495 12.9106 22.2739 12.494 20.8801 12.396C18.4841 12.2245 17.0416 13.4005 17.0416 15.4584C17.0416 17.5409 18.4841 18.7168 20.8801 18.5208C22.2739 18.4228 23.3497 17.9819 24.2542 17.5409V19.4273C24.2542 19.4273 22.4694 19.8928 20.758 19.9664C17.6039 20.1132 15.648 19.5008 14.5233 18.5454V28.835H21.0514C23.4964 28.835 25.5012 26.8506 25.5012 24.3761V2.08204H18.9731V2.08173Z" fill="url(#paint4_linear_755_1346)"/>
<defs>
<linearGradient id="paint0_linear_755_1346" x1="26.8173" y1="17.1526" x2="37.8048" y2="17.1526" gradientUnits="userSpaceOnUse">
<stop stop-color="#007940"/>
<stop offset="0.2285" stop-color="#00873F"/>
<stop offset="0.7433" stop-color="#40A737"/>
<stop offset="1" stop-color="#5CB531"/>
</linearGradient>
<linearGradient id="paint1_linear_755_1346" x1="26.8171" y1="15.4355" x2="37.8051" y2="15.4355" gradientUnits="userSpaceOnUse">
<stop stop-color="#007940"/>
<stop offset="0.2285" stop-color="#00873F"/>
<stop offset="0.7433" stop-color="#40A737"/>
<stop offset="1" stop-color="#5CB531"/>
</linearGradient>
<linearGradient id="paint2_linear_755_1346" x1="26.817" y1="13.5693" x2="37.805" y2="13.5693" gradientUnits="userSpaceOnUse">
<stop stop-color="#007940"/>
<stop offset="0.2285" stop-color="#00873F"/>
<stop offset="0.7433" stop-color="#40A737"/>
<stop offset="1" stop-color="#5CB531"/>
</linearGradient>
<linearGradient id="paint3_linear_755_1346" x1="2.21979" y1="15.4355" x2="13.3771" y2="15.4355" gradientUnits="userSpaceOnUse">
<stop stop-color="#1F286F"/>
<stop offset="0.4751" stop-color="#004E94"/>
<stop offset="0.8261" stop-color="#0066B1"/>
<stop offset="1" stop-color="#006FBC"/>
</linearGradient>
<linearGradient id="paint4_linear_755_1346" x1="14.4599" y1="15.4354" x2="25.2963" y2="15.4354" gradientUnits="userSpaceOnUse">
<stop stop-color="#6C2C2F"/>
<stop offset="0.1735" stop-color="#882730"/>
<stop offset="0.5731" stop-color="#BE1833"/>
<stop offset="0.8585" stop-color="#DC0436"/>
<stop offset="1" stop-color="#E60039"/>
</linearGradient>
</defs>
</svg>
