<svg width="45" height="35" viewBox="0 0 45 35" fill="none" xmlns="http://www.w3.org/2000/svg">
<g clip-path="url(#clip0_755_1329)">
<path d="M8.12904 34.5866V32.2861C8.12904 31.404 7.59211 30.829 6.67178 30.829C6.21171 30.829 5.71321 30.9824 5.36806 31.4809C5.09977 31.059 4.71638 30.829 4.14119 30.829C3.75762 30.829 3.3744 30.9439 3.06751 31.3658V30.9057H2.26229V34.5866H3.06751V32.5544C3.06751 31.9027 3.41266 31.5958 3.94958 31.5958C4.48616 31.5958 4.7548 31.9409 4.7548 32.5544V34.5866H5.56002V32.5544C5.56002 31.9027 5.94324 31.5958 6.44175 31.5958C6.97867 31.5958 7.24696 31.9409 7.24696 32.5544V34.5866H8.12904V34.5866ZM20.0538 30.9057H18.7502V29.7938H17.945V30.9057H17.2165V31.6341H17.9448V33.3213C17.9448 34.165 18.29 34.6633 19.2103 34.6633C19.5555 34.6633 19.9387 34.5484 20.2073 34.395L19.9771 33.7047C19.7471 33.8581 19.4788 33.8965 19.287 33.8965C18.9036 33.8965 18.7502 33.6665 18.7502 33.2829V31.6341H20.0538V30.9057V30.9057ZM26.8791 30.8288C26.419 30.8288 26.1123 31.059 25.9205 31.3658V30.9057H25.1153V34.5866H25.9205V32.5161C25.9205 31.9027 26.1888 31.5575 26.6873 31.5575C26.8407 31.5575 27.0325 31.596 27.1858 31.6342L27.4159 30.8674C27.2625 30.829 27.0325 30.829 26.8791 30.829V30.8288ZM16.5646 31.2124C16.181 30.9439 15.6443 30.829 15.0691 30.829C14.149 30.829 13.5355 31.2891 13.5355 32.0176C13.5355 32.6312 13.9956 32.9762 14.8008 33.0913L15.1842 33.1297C15.606 33.2062 15.8361 33.3213 15.8361 33.5131C15.8361 33.7814 15.5294 33.9732 14.9924 33.9732C14.4557 33.9732 14.0339 33.7814 13.7654 33.5898L13.382 34.2032C13.8038 34.51 14.379 34.6633 14.954 34.6633C16.0277 34.6633 16.6413 34.165 16.6413 33.4747C16.6413 32.8228 16.1428 32.4777 15.3758 32.3628L14.9924 32.3243C14.6473 32.2859 14.379 32.2094 14.379 31.9794C14.379 31.7109 14.6473 31.5575 15.0691 31.5575C15.5294 31.5575 15.9894 31.7492 16.2195 31.8643L16.5646 31.2124V31.2124ZM37.9606 30.829C37.5003 30.829 37.1936 31.059 37.0018 31.3658V30.9057H36.1966V34.5866H37.0018V32.5161C37.0018 31.9027 37.2703 31.5575 37.7686 31.5575C37.9221 31.5575 38.1139 31.596 38.2673 31.6342L38.4973 30.8674C38.344 30.829 38.1139 30.829 37.9606 30.829V30.829ZM27.6843 32.7462C27.6843 33.8581 28.4511 34.6633 29.6399 34.6633C30.1767 34.6633 30.5601 34.5484 30.9435 34.2417L30.5601 33.5898C30.2533 33.8198 29.9466 33.9348 29.6015 33.9348C28.9496 33.9348 28.4895 33.4747 28.4895 32.7462C28.4895 32.056 28.9496 31.5958 29.6015 31.5575C29.9466 31.5575 30.2533 31.6725 30.5601 31.9027L30.9435 31.2508C30.5601 30.9439 30.1767 30.829 29.6399 30.829C28.4511 30.829 27.6843 31.6342 27.6843 32.7462ZM35.1231 32.7462V30.9057H34.3179V31.3658C34.0494 31.0208 33.666 30.829 33.1675 30.829C32.1322 30.829 31.327 31.6342 31.327 32.7462C31.327 33.8581 32.1322 34.6633 33.1675 34.6633C33.7043 34.6633 34.0878 34.4717 34.3179 34.1266V34.5866H35.1231V32.7462V32.7462ZM32.1705 32.7462C32.1705 32.0943 32.5923 31.5575 33.2824 31.5575C33.9343 31.5575 34.3945 32.056 34.3945 32.7462C34.3945 33.398 33.9343 33.9348 33.2824 33.9348C32.5923 33.8964 32.1705 33.398 32.1705 32.7462V32.7462ZM22.5463 30.829C21.4726 30.829 20.7056 31.5958 20.7056 32.7462C20.7056 33.8965 21.4724 34.6633 22.5845 34.6633C23.1213 34.6633 23.6582 34.51 24.0801 34.165L23.6965 33.5898C23.3898 33.8198 23.0064 33.9732 22.623 33.9732C22.1245 33.9732 21.626 33.7432 21.5109 33.0911H24.2334V32.7846C24.2718 31.5958 23.5816 30.829 22.5461 30.829H22.5463ZM22.5463 31.5191C23.0446 31.5191 23.3899 31.826 23.4664 32.4012H21.5493C21.626 31.9027 21.9711 31.5191 22.5463 31.5191ZM42.5234 32.7462V29.4486H41.7182V31.3658C41.4497 31.0208 41.0663 30.829 40.5678 30.829C39.5326 30.829 38.7274 31.6342 38.7274 32.7462C38.7274 33.8581 39.5326 34.6633 40.5678 34.6633C41.1048 34.6633 41.4882 34.4717 41.7182 34.1266V34.5866H42.5234V32.7462V32.7462ZM39.571 32.7462C39.571 32.0943 39.9926 31.5575 40.6829 31.5575C41.3348 31.5575 41.7949 32.056 41.7949 32.7462C41.7949 33.398 41.3348 33.9348 40.6829 33.9348C39.9926 33.8964 39.571 33.398 39.571 32.7462V32.7462ZM12.6535 32.7462V30.9057H11.8482V31.3658C11.5798 31.0208 11.1964 30.829 10.6979 30.829C9.66262 30.829 8.8574 31.6342 8.8574 32.7462C8.8574 33.8581 9.66262 34.6633 10.6979 34.6633C11.2348 34.6633 11.6182 34.4717 11.8482 34.1266V34.5866H12.6535V32.7462V32.7462ZM9.66262 32.7462C9.66262 32.0943 10.0844 31.5575 10.7746 31.5575C11.4264 31.5575 11.8867 32.056 11.8867 32.7462C11.8867 33.398 11.4264 33.9348 10.7746 33.9348C10.0844 33.8964 9.66262 33.398 9.66262 32.7462V32.7462Z" fill="black"/>
<path d="M16.2962 2.95312H28.3745V24.6558H16.2962V2.95312Z" fill="#FF5F00"/>
<path d="M17.0631 13.8038C17.0631 9.39434 19.1336 5.48317 22.3161 2.95241C19.9773 1.11194 17.0249 0 13.804 0C6.17329 0 0 6.17329 0 13.8038C0 21.4342 6.17329 27.6077 13.8038 27.6077C17.0247 27.6077 19.9771 26.4957 22.3161 24.6551C19.1336 22.1627 17.0631 18.2133 17.0631 13.8038V13.8038Z" fill="#EB001B"/>
<path d="M44.6706 13.8038C44.6706 21.4342 38.4973 27.6077 30.8668 27.6077C27.6459 27.6077 24.6935 26.4957 22.3545 24.6551C25.5754 22.1245 27.6076 18.2133 27.6076 13.8038C27.6076 9.39434 25.5369 5.48317 22.3545 2.95241C24.6933 1.11194 27.6459 0 30.8668 0C38.4973 0 44.6708 6.21171 44.6708 13.8038H44.6706Z" fill="#F79E1B"/>
</g>
<defs>
<clipPath id="clip0_755_1329">
<rect width="44.715" height="34.7589" fill="white"/>
</clipPath>
</defs>
</svg>
