<svg width="21" height="21" viewBox="0 0 21 21" fill="none" xmlns="http://www.w3.org/2000/svg">
<path d="M11.0063 7.39278H9.21338V10.1959H11.0063C11.4604 10.1959 11.8134 10.0818 12.0654 9.85371C12.3174 9.62567 12.4431 9.26407 12.4431 8.76861C12.4431 8.27314 12.3171 7.92007 12.0654 7.70909C11.8138 7.4981 11.4604 7.39278 11.0063 7.39278" fill="#369ECE"/>
<path d="M10.4997 0.65625C5.06329 0.65625 0.655914 5.06362 0.655914 10.5C0.655914 15.9364 5.06329 20.3438 10.4997 20.3438C15.9364 20.3438 20.3437 15.9364 20.3437 10.5C20.3437 5.06362 15.9364 0.65625 10.4997 0.65625ZM13.5834 11.1395C13.0259 11.6048 12.2299 11.8368 11.1956 11.8368H9.21341V15.2604H7.23712V5.73956H11.3249C12.2673 5.73956 13.0187 5.985 13.5791 6.47588C14.1392 6.96675 14.4198 7.72702 14.4198 8.75602C14.4194 9.87952 14.1409 10.6742 13.5834 11.1395" fill="#369ECE"/>
</svg>
