<svg width="50" height="50" viewBox="0 0 50 50" fill="none" xmlns="http://www.w3.org/2000/svg">
<path d="M39.5833 4.16675H10.4167C6.97082 4.16675 4.16666 6.97091 4.16666 10.4167V16.3147C4.16666 18.5084 4.96249 20.5022 6.24999 22.0355V41.6668C6.24999 42.2193 6.46948 42.7492 6.86018 43.1399C7.25088 43.5306 7.78079 43.7501 8.33332 43.7501H25C25.5525 43.7501 26.0824 43.5306 26.4731 43.1399C26.8638 42.7492 27.0833 42.2193 27.0833 41.6668V31.2501H35.4167V41.6668C35.4167 42.2193 35.6362 42.7492 36.0269 43.1399C36.4176 43.5306 36.9475 43.7501 37.5 43.7501H41.6667C42.2192 43.7501 42.7491 43.5306 43.1398 43.1399C43.5305 42.7492 43.75 42.2193 43.75 41.6668V22.0334C45.0375 20.5022 45.8333 18.5084 45.8333 16.3126V10.4167C45.8333 6.97091 43.0292 4.16675 39.5833 4.16675ZM41.6667 10.4167V16.3147C41.6667 18.6897 39.8979 20.7147 37.7271 20.8292L37.5 20.8334C35.2021 20.8334 33.3333 18.9647 33.3333 16.6667V8.33342H39.5833C40.7333 8.33342 41.6667 9.26883 41.6667 10.4167ZM20.8333 16.6667V8.33342H29.1667V16.6667C29.1667 18.9647 27.2979 20.8334 25 20.8334C22.7021 20.8334 20.8333 18.9647 20.8333 16.6667ZM8.33332 10.4167C8.33332 9.26883 9.26666 8.33342 10.4167 8.33342H16.6667V16.6667C16.6667 18.9647 14.7979 20.8334 12.5 20.8334L12.2729 20.8272C10.1021 20.7147 8.33332 18.6897 8.33332 16.3147V10.4167ZM20.8333 33.3334H12.5V27.0834H20.8333V33.3334Z" fill="#858585"/>
</svg>