<svg width="64" height="21" viewBox="0 0 64 21" fill="none" xmlns="http://www.w3.org/2000/svg">
<g clip-path="url(#clip0_755_1325)">
<path d="M32.7082 6.50607C32.6721 9.34103 35.2436 10.923 37.1807 11.8636C39.1709 12.8286 39.8394 13.4475 39.8315 14.3106C39.8167 15.6313 38.244 16.2143 36.7723 16.2369C34.2048 16.2766 32.7119 15.5461 31.5251 14.9937L30.6001 19.3065C31.7909 19.8532 33.9958 20.3301 36.2822 20.351C41.6493 20.351 45.1605 17.711 45.1796 13.6178C45.2006 8.42304 37.9688 8.13551 38.0182 5.81357C38.0352 5.10951 38.7094 4.35818 40.1868 4.16715C40.918 4.07065 42.9366 3.99679 45.2253 5.04698L46.1235 0.874296C44.8927 0.427733 43.3109 0.000124345 41.3414 0.000124345C36.2898 0.000124345 32.7368 2.67606 32.7082 6.50607V6.50607ZM54.7548 0.359541C53.7748 0.359541 52.9489 0.929192 52.5803 1.80336L44.9137 20.0445H50.2769L51.3441 17.1054H57.8977L58.5168 20.0445H63.2438L59.1189 0.359541H54.7548V0.359541ZM55.5051 5.67719L57.0528 13.0691H52.814L55.5051 5.67719V5.67719ZM26.2057 0.359787L21.9782 20.0443H27.0889L31.3143 0.359295H26.2057V0.359787ZM18.6453 0.359295L13.3259 13.7579L11.1741 2.36563C10.9217 1.09389 9.92459 0.359541 8.81732 0.359541H0.121794L0 0.931162C1.78516 1.31717 3.8134 1.93975 5.04221 2.6059C5.79422 3.01283 6.00866 3.36855 6.2557 4.33553L10.3312 20.0445H15.7319L24.0119 0.359541H18.6453" fill="url(#paint0_linear_755_1325)"/>
</g>
<defs>
<linearGradient id="paint0_linear_755_1325" x1="29.0757" y1="20.7593" x2="29.6627" y2="-0.141526" gradientUnits="userSpaceOnUse">
<stop stop-color="#222357"/>
<stop offset="1" stop-color="#254AA5"/>
</linearGradient>
<clipPath id="clip0_755_1325">
<rect width="63.2438" height="20.4326" fill="white"/>
</clipPath>
</defs>
</svg>
